{"title":"Marvels Agents of S.H.I.E.L.D S01E11 HDTV x264 AAC [GWC].mp4","uid":9451369,"size":119589365,"categoryP":"video","categoryS":"tv_shows","magnet":"?xt=urn:btih:0c0d30dd7313eb644be5dbaeaf76fb2c5d427af8&amp;dn=Marvels+Agents+of+S.H.I.E.L.D+S01E11+HDTV+x264+AAC+%5BGWC%5D.mp4&amp;tr=udp%3A%2F%2Ftracker.openbittorrent.com%3A80&amp;tr=udp%3A%2F%2Fopen.demonii.com%3A1337&amp;tr=udp%3A%2F%2Ftracker.coppersurfer.tk%3A6969&amp;tr=udp%3A%2F%2Fexodus.desync.com%3A6969","seeders":1,"leechers":0,"uploader":"canc232","files":1,"time":1389189132,"description":"Marvels Agents of S.H.I.E.L.D S01E11 HDTV x264 AAC [GWC]\n\n\nSCREENS : &lt;a href=&quot;\nhttp://s20.postimg.org/yp8en83nh/Z21_1.jpg&quot; rel=&quot;nofollow&quot; target=&quot;_NEW&quot;&gt;\nhttp://s20.postimg.org/yp8en83nh/Z21_1.jpg&lt;/a&gt;\n &lt;a href=&quot;\nhttp://s20.postimg.org/w6mpmjhx9/Z21_2.jpg&quot; rel=&quot;nofollow&quot; target=&quot;_NEW&quot;&gt;\nhttp://s20.postimg.org/w6mpmjhx9/Z21_2.jpg&lt;/a&gt;\n &lt;a href=&quot;\nhttp://s20.postimg.org/wlxzfk3ul/Z21_3.jpg&quot; rel=&quot;nofollow&quot; target=&quot;_NEW&quot;&gt;\nhttp://s20.postimg.org/wlxzfk3ul/Z21_3.jpg&lt;/a&gt;\n\n\nMEDIA INFO :\nGeneral \nFormat : MPEG-4 \nFormat profile : Base Media \nFile size : 114 MiB \nDuration : 41mn 58s \nOverall bit rate : 380 Kbps \n\nVideo \nFormat : AVC \nFormat profile : &lt;a class=&quot;__cf_email__&quot; href=&quot;/cdn-cgi/l/email-protection&quot; data-cfemail=&quot;125a7b757a525e213c22&quot;&gt;[email&amp;#160;protected]&lt;/a&gt;&lt;script cf-hash='f9e31' type=&quot;text/javascript&quot;&gt;\n/* &lt;![CDATA[ */!function(){try{var t=&quot;currentScript&quot;in document?document.currentScript:function(){for(var t=document.getElementsByTagName(&quot;script&quot;),e=t.length;e--;)if(t[e].getAttribute(&quot;cf-hash&quot;))return t[e]}();if(t&amp;&amp;t.previousSibling){var e,r,n,i,c=t.previousSibling,a=c.getAttribute(&quot;data-cfemail&quot;);if(a){for(e=&quot;&quot;,r=parseInt(a.substr(0,2),16),n=2;a.length-n;n+=2)i=parseInt(a.substr(n,2),16)^r,e+=String.fromCharCode(i);e=document.createTextNode(e),c.parentNode.replaceChild(e,c)}}}catch(u){}}();/* ]]&gt; */&lt;/script&gt; \nFormat settings, CABAC : Yes \nFormat settings, ReFrames : 4 frames \nDuration : 41mn 58s \nBit rate : 317 Kbps \nMaximum bit rate : 2 188 Kbps \nWidth : 720 pixels \nHeight : 404 pixels \nDisplay aspect ratio : 16:9 \nFrame rate : 23.976 fps \nStream size : 95.1 MiB\nTitle : Marvels Agents of S.H.I.E.L.D S01E11 HDTV x264 AAC [GWC] \nWriting library : x264 core\n\nAudio \nFormat : AAC \nFormat profile : HE-AAC / LC \nDuration : 41mn 58s \nBit rate mode : Variable \nChannel(s) : 2 channels \nSampling rate : 48.0 KHz / 24.0 KHz \nStream size : 18.0 MiB \nLanguage : English ","torrent":{"xt":"urn:btih:0c0d30dd7313eb644be5dbaeaf76fb2c5d427af8","amp;dn":"Marvels+Agents+of+S.H.I.E.L.D+S01E11+HDTV+x264+AAC+%5BGWC%5D.mp4","amp;tr":["udp%3A%2F%2Ftracker.openbittorrent.com%3A80","udp%3A%2F%2Fopen.demonii.com%3A1337","udp%3A%2F%2Ftracker.coppersurfer.tk%3A6969","udp%3A%2F%2Fexodus.desync.com%3A6969"],"infoHash":"0c0d30dd7313eb644be5dbaeaf76fb2c5d427af8","infoHashBuffer":{"type":"Buffer","data":[12,13,48,221,115,19,235,100,75,229,219,174,175,118,251,44,93,66,122,248]},"announce":[],"urlList":[]}}